# xmcd
#
# Track frame offsets:
#	150
#	15683
#	34703
#	51863
#	63230
#	82944
#	101371
#	115701
#	131203
#	147459
#	161605
#	177709
#	191627
#	207960
#	220328
#	236141
#	250941
#
# Disc length: 3543 seconds
#
# Revision: 2
# Processed by: cddbd v1.5.2PL0 Copyright (c) Steve Scherf et al.
# Submitted via: EasyCDDAExtractor 11.5.0.1
#
DISCID=f70dd511
DTITLE=Various Artist - NCT 024
DYEAR=2001
DGENRE=Country
TTITLE0=Mark McGuinn - Mrs. Steven Rudy
TTITLE1=Mark Wills - Loving Every Minute
TTITLE2=John Rich - Forever Loving You
TTITLE3=Charlie Robison - I Want You Bad
TTITLE4=SheDaisy - Still Holding Out For You
TTITLE5=Brad Paisley - Two People Fell In Love
TTITLE6=Kinleys - You're Still Here
TTITLE7=Soggy Bottom Boys - I Am A Man Of Constant Sorrow
TTITLE8=Tracy Lawrence - Unforgiven
TTITLE9=Slaid Cleaves - Broke Down
TTITLE10=Carolyn Dawn Johnson - Complicated
TTITLE11=Craig Morgan - I Want Us Back
TTITLE12=Lila McCann - Come A Little Closer
TTITLE13=Kortney Kayle - Unbroken By You
TTITLE14=3 Of Hearts - Love Is Enough
TTITLE15=Billy Ray Cyrus - Crazy 'Bout You Baby
TTITLE16=John Anderson - The Big Revival
EXTD=
EXTT0=
EXTT1=
EXTT2=
EXTT3=
EXTT4=
EXTT5=
EXTT6=
EXTT7=
EXTT8=
EXTT9=
EXTT10=
EXTT11=
EXTT12=
EXTT13=
EXTT14=
EXTT15=
EXTT16=
PLAYORDER=
